<svg id="flat" height="512" viewBox="0 0 512 512" width="512" xmlns="http://www.w3.org/2000/svg"><path d="m488 312a46.71678 46.71678 0 0 1 -19.53027 37.95 139.87119 139.87119 0 0 1 -81.28955 26.05h-251.18018l-72-48v-32l72-48h251.18018a139.8316 139.8316 0 0 1 81.28955 26.05005 46.64313 46.64313 0 0 1 19.53027 37.94995z" fill="#6d7e85"/><path d="m24 264h16l24 32v32l-24 32h-16z" fill="#5e727a"/><path d="m256 184h112v64h-112z" fill="#5e727a"/><path d="m328 136h24v48h-24z" fill="#536770"/><path d="m296 144h16v40h-16z" fill="#536770"/><path d="m272 144h16v40h-16z" fill="#536770"/><g fill="#8be0e8"><path d="m280 208h16v16h-16z"/><path d="m312 208h16v16h-16z"/><path d="m368 272h16v16h-16z"/><path d="m392 272h16v16h-16z"/><path d="m296 272h16v16h-16z"/><path d="m272 272h16v16h-16z"/><path d="m320 272h16v16h-16z"/><path d="m192 272h16v16h-16z"/><path d="m168 272h16v16h-16z"/><path d="m144 272h16v16h-16z"/><path d="m216 272h16v16h-16z"/></g><path d="m475.28027 344a46.18193 46.18193 0 0 1 -6.81054 5.95 139.87119 139.87119 0 0 1 -81.28955 26.05h-251.18018l-48-32z" fill="#536770"/></svg>